<svg preserveAspectRatio="none" overflow="visible" style="display: block;" width="42" height="42" viewBox="0 0 42 42" fill="none" xmlns="http://www.w3.org/2000/svg">
<g id="Frame" clip-path="url(#clip0_0_66)">
<path id="Vector" d="M37.8166 14.093C37.2177 14.4211 36.6763 14.7902 36.2005 15.2004H4.80718C4.82359 15.1758 4.83179 15.1594 4.8482 15.1348C7.02203 11.7879 10.4427 9.83555 13.6666 9.83555C16.9478 9.83555 19.0068 11.632 21.722 11.632C24.3552 11.632 25.9548 9.82734 29.7529 9.82734C32.6158 9.82734 35.6591 11.3941 37.8166 14.093ZM26.8736 6.8168C28.2517 5.04492 29.3017 2.55117 28.9162 0C26.6603 0.155859 24.0353 1.5832 22.4931 3.45352C21.0986 5.14336 19.9419 7.66172 20.3931 10.1062C22.8541 10.1801 25.397 8.71172 26.8736 6.8168Z" fill="#75BD21"/>
<path id="Vector_2" d="M3.06782 20.5571H33.1733C33.5014 18.5555 34.494 16.6524 36.2002 15.2005H4.80688C3.87993 16.6524 3.2975 18.4899 3.06782 20.5571Z" fill="#FFC728"/>
<path id="Vector_3" d="M3.2156 25.9218H33.8625C33.116 24.2484 32.8699 22.3698 33.1652 20.5652H3.05974C2.87927 22.2222 2.92849 24.0433 3.2156 25.9218Z" fill="#FF661C"/>
<path id="Vector_4" d="M4.69188 31.2785H38.8333C38.8989 31.1309 38.9727 30.975 39.0466 30.8109C36.5692 29.8758 34.8138 28.0547 33.8704 25.9219H3.22352C3.49423 27.6691 3.97821 29.482 4.69188 31.2785Z" fill="#CF0F2B"/>
<path id="Vector_5" d="M7.26827 36.2415C7.35851 36.3727 7.44874 36.5122 7.53898 36.6434H35.8234V36.6352C35.9956 36.3891 36.1597 36.143 36.3155 35.9052C37.4886 34.1169 37.9808 33.1489 38.8257 31.2786H4.69249C5.35694 32.9602 6.21007 34.6337 7.26827 36.2415Z" fill="#B01CAB"/>
<path id="Vector_6" d="M14.503 42.0001C17.251 42.0247 18.0303 40.2446 21.7627 40.2282C25.4952 40.2118 26.2006 42.0247 28.9487 42.0001C31.7623 41.9755 34.0838 39.1864 35.8147 36.6516H7.53852C9.27758 39.2356 11.5581 41.9755 14.503 42.0001Z" fill="#00A1DE"/>
</g>
<defs>
<clipPath id="clip0_0_66">
<rect width="42" height="42" fill="white"/>
</clipPath>
</defs>
</svg>
