<svg width="16" height="16" viewBox="0 0 16 16" fill="none" xmlns="http://www.w3.org/2000/svg">
<path opacity="0.5" d="M8.00001 1.33341C4.31801 1.33341 1.33334 4.31808 1.33334 8.00008C1.33334 11.6821 4.31801 14.6667 8.00001 14.6667C11.682 14.6667 14.6667 11.6821 14.6667 8.00008C14.6667 4.31808 11.682 1.33341 8.00001 1.33341Z" fill="white"/>
<path d="M8.64681 10.3536C8.69258 10.4027 8.74778 10.4421 8.80911 10.4694C8.87045 10.4967 8.93666 10.5114 9.00379 10.5126C9.07093 10.5138 9.13761 10.5015 9.19987 10.4763C9.26213 10.4512 9.31869 10.4137 9.36617 10.3662C9.41364 10.3188 9.45107 10.2622 9.47622 10.2C9.50137 10.1377 9.51372 10.071 9.51253 10.0039C9.51135 9.93674 9.49666 9.87053 9.46933 9.8092C9.442 9.74786 9.4026 9.69266 9.35347 9.64689L7.70681 8.00022L9.35347 6.35356C9.4026 6.30778 9.442 6.25258 9.46933 6.19125C9.49666 6.12992 9.51135 6.06371 9.51253 5.99657C9.51372 5.92944 9.50137 5.86275 9.47622 5.80049C9.45107 5.73823 9.41364 5.68168 9.36616 5.6342C9.31869 5.58672 9.26213 5.54929 9.19987 5.52414C9.13761 5.49899 9.07093 5.48664 9.00379 5.48783C8.93666 5.48901 8.87045 5.50371 8.80911 5.53104C8.74778 5.55836 8.69258 5.59776 8.64681 5.64689L6.64681 7.64689C6.55317 7.74064 6.50058 7.86772 6.50058 8.00022C6.50058 8.13272 6.55317 8.25981 6.64681 8.35356L8.64681 10.3536Z" fill="white"/>
</svg>
