<svg width="16" height="16" viewBox="0 0 16 16" fill="none" xmlns="http://www.w3.org/2000/svg">
<path d="M2 4.25725C2 3.93459 2.23 3.67259 2.514 3.67259H4.29067C4.64333 3.66192 4.95467 3.40659 5.07467 3.02925L5.09467 2.96259L5.17133 2.70192C5.218 2.54192 5.25867 2.40192 5.316 2.27725C5.54133 1.78459 5.95867 1.44259 6.44067 1.35525C6.56333 1.33325 6.69267 1.33325 6.84067 1.33325H9.15933C9.308 1.33325 9.43733 1.33325 9.55933 1.35525C10.0413 1.44259 10.4593 1.78459 10.684 2.27725C10.7413 2.40192 10.782 2.54125 10.8293 2.70192L10.9053 2.96259L10.9253 3.02925C11.0453 3.40659 11.4187 3.66259 11.772 3.67259H13.4853C13.77 3.67259 14 3.93459 14 4.25725C14 4.57992 13.77 4.84192 13.486 4.84192H2.51333C2.23 4.84192 2 4.57992 2 4.25725Z" fill="white"/>
<path fill-rule="evenodd" clip-rule="evenodd" d="M6.28334 7.65464C6.55867 7.6253 6.80334 7.83664 6.83067 8.12597L7.164 11.6346C7.19134 11.9233 6.99067 12.1813 6.71667 12.2106C6.442 12.2393 6.19667 12.0286 6.16934 11.7393L5.836 8.23064C5.80867 7.9413 6.00934 7.6833 6.28334 7.65464ZM9.71667 7.65464C9.99134 7.6833 10.192 7.9413 10.164 8.23064L9.83067 11.7393C9.804 12.0286 9.55867 12.2393 9.284 12.2106C9.00867 12.1813 8.80867 11.924 8.836 11.6346L9.16934 8.1253C9.19667 7.83664 9.442 7.6253 9.716 7.65397" fill="white"/>
<path opacity="0.5" d="M7.73067 14.6666H8.26933C10.1247 14.6666 11.052 14.6666 11.656 14.0759C12.2587 13.4853 12.32 12.5166 12.4433 10.5793L12.6213 7.78728C12.688 6.73595 12.7213 6.20995 12.4193 5.87728C12.1167 5.54395 11.606 5.54395 10.584 5.54395H5.416C4.394 5.54395 3.88267 5.54395 3.58067 5.87728C3.27867 6.21061 3.31133 6.73595 3.37867 7.78728L3.55667 10.5793C3.68 12.5166 3.74133 13.4859 4.34467 14.0759C4.948 14.6666 5.87533 14.6666 7.73067 14.6666Z" fill="white"/>
</svg>
