<svg width="16" height="16" viewBox="0 0 16 16" fill="none" xmlns="http://www.w3.org/2000/svg">
<path opacity="0.5" d="M14.6667 9.33325V7.86525C14.6667 6.11059 14.6667 5.23259 14.1534 4.66259C14.1063 4.60998 14.0564 4.55991 14.004 4.51259C13.434 3.99992 12.556 3.99992 10.8014 3.99992H10.552C9.78337 3.99992 9.39871 3.99992 9.04004 3.89792C8.84321 3.84166 8.65352 3.76291 8.47471 3.66325C8.14937 3.48259 7.87737 3.20992 7.33337 2.66659L6.96671 2.29992C6.78404 2.11725 6.69337 2.02659 6.59737 1.94659C6.18448 1.60435 5.678 1.39455 5.14404 1.34459C5.02004 1.33325 4.89071 1.33325 4.63337 1.33325C4.04471 1.33325 3.75071 1.33325 3.50537 1.37992C2.9786 1.4794 2.49404 1.73534 2.11491 2.11435C1.73578 2.49336 1.47969 2.97784 1.38004 3.50459C1.33337 3.75059 1.33337 4.04525 1.33337 4.63325V9.33325C1.33337 11.8473 1.33337 13.1046 2.11471 13.8853C2.89604 14.6659 4.15271 14.6666 6.66671 14.6666H9.33337C11.8474 14.6666 13.1047 14.6666 13.8854 13.8853C14.666 13.1039 14.6667 11.8473 14.6667 9.33325Z" fill="white"/>
<path d="M8.16663 6.66675C8.16663 6.53414 8.2193 6.40696 8.31307 6.31319C8.40684 6.21943 8.53402 6.16675 8.66663 6.16675H12C12.1326 6.16675 12.2597 6.21943 12.3535 6.31319C12.4473 6.40696 12.5 6.53414 12.5 6.66675C12.5 6.79936 12.4473 6.92653 12.3535 7.0203C12.2597 7.11407 12.1326 7.16675 12 7.16675H8.66663C8.53402 7.16675 8.40684 7.11407 8.31307 7.0203C8.2193 6.92653 8.16663 6.79936 8.16663 6.66675Z" fill="white"/>
</svg>
